<svg xmlns="http://www.w3.org/2000/svg" xmlns:xlink="http://www.w3.org/1999/xlink" id="Ebene_1" x="0px" y="0px" viewBox="0 0 612 239.8" style="enable-background:new 0 0 612 239.8;" xml:space="preserve"><style type="text/css">	.st0{fill:#657352;}</style><g>	<path class="st0" d="M128.9,194.5c0-4.2,3.4-7.6,7.6-7.6s7.6,3.4,7.6,7.6c0,4.2-3.4,7.6-7.6,7.6S128.9,198.7,128.9,194.5  L128.9,194.5z M134.4,170c0-4.7,3.8-8.6,8.6-8.6c4.7,0,8.6,3.8,8.6,8.6c0,4.7-3.8,8.6-8.6,8.6C138.2,178.5,134.4,174.7,134.4,170  L134.4,170z M140.6,184.6c0-1.8,1.5-3.3,3.3-3.3c1.8,0,3.3,1.5,3.3,3.3c0,1.8-1.5,3.3-3.3,3.3C142.1,187.9,140.6,186.4,140.6,184.6  L140.6,184.6z M146,193.7c0-2.3,1.9-4.1,4.1-4.1c2.3,0,4.1,1.8,4.1,4.1c0,2.3-1.8,4.1-4.1,4.1C147.9,197.8,146,196,146,193.7  L146,193.7z M138.6,156.6c0-1.8,1.5-3.3,3.3-3.3c1.8,0,3.3,1.5,3.3,3.3c0,1.8-1.5,3.3-3.3,3.3C140.1,159.9,138.6,158.5,138.6,156.6  L138.6,156.6z M85.6,178.7c0-2.5,2.1-4.6,4.6-4.6c2.5,0,4.6,2.1,4.6,4.6c0,2.5-2,4.6-4.6,4.6C87.7,183.2,85.6,181.2,85.6,178.7  L85.6,178.7z M86.8,193.9c0-4.5,3.6-8.1,8.1-8.1c4.5,0,8.1,3.6,8.1,8.1c0,4.5-3.6,8.1-8.1,8.1C90.4,202,86.8,198.4,86.8,193.9  L86.8,193.9z M96.8,174c0-4.7,3.8-8.6,8.6-8.6c4.7,0,8.6,3.8,8.6,8.6c0,4.7-3.8,8.6-8.6,8.6C100.6,182.6,96.8,178.7,96.8,174  L96.8,174z M104.6,193.6c0-4.1,3.3-7.5,7.5-7.5c4.1,0,7.5,3.3,7.5,7.5c0,4.1-3.3,7.5-7.5,7.5C107.9,201.1,104.6,197.8,104.6,193.6  L104.6,193.6z M116.1,181.8c0-4.2,3.4-7.7,7.7-7.7c4.2,0,7.7,3.4,7.7,7.7c0,4.2-3.4,7.7-7.7,7.7C119.5,189.5,116.1,186,116.1,181.8  L116.1,181.8z M119.4,200c0-2.3,1.8-4.1,4.1-4.1c2.3,0,4.1,1.8,4.1,4.1c0,2.3-1.8,4.1-4.1,4.1C121.2,204.1,119.4,202.2,119.4,200  L119.4,200z M42.9,162c0-4.3,3.5-7.9,7.9-7.9c4.3,0,7.9,3.5,7.9,7.9c0,4.3-3.5,7.9-7.9,7.9C46.4,169.8,42.9,166.3,42.9,162  L42.9,162z M54.4,178.9c0-4.9,3.9-8.8,8.8-8.8c4.9,0,8.8,3.9,8.8,8.8c0,4.9-3.9,8.8-8.8,8.8C58.3,187.7,54.4,183.8,54.4,178.9  L54.4,178.9z M58.6,154.9c0-4.6,3.7-8.3,8.3-8.3s8.3,3.7,8.3,8.3c0,4.6-3.7,8.3-8.3,8.3S58.6,159.5,58.6,154.9L58.6,154.9z   M71.7,186.6c0-4.1,3.3-7.5,7.5-7.5c4.1,0,7.5,3.3,7.5,7.5c0,4.1-3.3,7.5-7.5,7.5C75.1,194.1,71.7,190.7,71.7,186.6L71.7,186.6z   M72.8,169.2c0-4.2,3.4-7.6,7.6-7.6c4.2,0,7.6,3.4,7.6,7.6s-3.4,7.6-7.6,7.6C76.1,176.8,72.8,173.4,72.8,169.2L72.8,169.2z   M35.9,156.7c0-1.8,1.5-3.3,3.3-3.3c1.8,0,3.3,1.5,3.3,3.3c0,1.8-1.5,3.3-3.3,3.3C37.4,160,35.9,158.5,35.9,156.7L35.9,156.7z   M124.8,148.6c0-4.1,3.4-7.5,7.5-7.5c4.1,0,7.5,3.4,7.5,7.5c0,4.1-3.4,7.5-7.5,7.5C128.2,156.1,124.8,152.7,124.8,148.6  L124.8,148.6z M102.1,150.5c0-3.4,2.7-6.1,6.1-6.1c3.4,0,6.1,2.7,6.1,6.1c0,3.4-2.7,6.1-6.1,6.1  C104.9,156.6,102.1,153.9,102.1,150.5L102.1,150.5z M115.1,161.9c0-4.1,3.3-7.5,7.5-7.5c4.1,0,7.5,3.3,7.5,7.5  c0,4.1-3.3,7.5-7.5,7.5C118.5,169.4,115.1,166,115.1,161.9L115.1,161.9z M94.5,160.1c0-2.8,2.2-5,5-5c2.8,0,5,2.2,5,5  c0,2.7-2.2,5-5,5C96.8,165.1,94.5,162.9,94.5,160.1L94.5,160.1z M125.2,125.6c0-2.9,2.4-5.3,5.3-5.3c2.9,0,5.3,2.4,5.3,5.3  c0,2.9-2.4,5.3-5.3,5.3C127.6,130.9,125.2,128.5,125.2,125.6L125.2,125.6z M97,143c0-1.8,1.5-3.3,3.3-3.3c1.8,0,3.3,1.5,3.3,3.3  c0,1.8-1.5,3.3-3.3,3.3C98.5,146.3,97,144.8,97,143L97,143z M138.2,127.9c0-2.3,1.9-4.2,4.2-4.2c2.3,0,4.2,1.9,4.2,4.2  c0,2.3-1.9,4.2-4.2,4.2C140.1,132,138.2,130.2,138.2,127.9L138.2,127.9z M125.4,136.8c0-1.8,1.5-3.3,3.3-3.3c1.8,0,3.3,1.5,3.3,3.3  c0,1.8-1.5,3.3-3.3,3.3C126.9,140.1,125.4,138.7,125.4,136.8L125.4,136.8z M134.8,135.8c0-1.8,1.5-3.3,3.3-3.3  c1.8,0,3.3,1.5,3.3,3.3c0,1.8-1.5,3.3-3.3,3.3C136.3,139.1,134.8,137.6,134.8,135.8L134.8,135.8z M150.1,182.9  c0-4.1,3.3-7.5,7.5-7.5c4.1,0,7.5,3.3,7.5,7.5c0,4.1-3.3,7.5-7.5,7.5C153.5,190.3,150.1,187,150.1,182.9L150.1,182.9z M164.9,156.9  c0-4.7,3.8-8.5,8.5-8.5c4.7,0,8.5,3.8,8.5,8.5c0,4.7-3.8,8.5-8.5,8.5C168.7,165.4,164.9,161.6,164.9,156.9L164.9,156.9z   M166.2,174.4c0-4.1,3.3-7.5,7.5-7.5c4.1,0,7.5,3.3,7.5,7.5c0,4.1-3.3,7.5-7.5,7.5C169.6,181.9,166.2,178.5,166.2,174.4  L166.2,174.4z M166.5,138.9c0-4.4,3.6-8,8-8c4.4,0,8,3.6,8,8c0,4.4-3.6,8-8,8C170.1,147,166.5,143.4,166.5,138.9L166.5,138.9z   M142.1,146.4c0-4.8,3.9-8.7,8.8-8.7c4.8,0,8.7,3.9,8.7,8.7s-3.9,8.7-8.7,8.7C146,155.1,142.1,151.2,142.1,146.4L142.1,146.4z   M148.1,129.2c0-4.2,3.4-7.6,7.6-7.6c4.2,0,7.6,3.4,7.6,7.6c0,4.2-3.4,7.6-7.6,7.6C151.5,136.8,148.1,133.4,148.1,129.2  L148.1,129.2z M155.2,166.6c0-2.8,2.3-5.1,5.1-5.1c2.8,0,5.1,2.3,5.1,5.1c0,2.8-2.3,5.1-5.1,5.1  C157.5,171.7,155.2,169.4,155.2,166.6L155.2,166.6z M171.3,124.3c0-2.9,2.4-5.3,5.3-5.3c2.9,0,5.3,2.3,5.3,5.3  c0,2.9-2.4,5.2-5.3,5.2C173.7,129.5,171.3,127.2,171.3,124.3L171.3,124.3z M149.5,160.1c0-1.8,1.5-3.3,3.3-3.3  c1.8,0,3.3,1.5,3.3,3.3c0,1.8-1.5,3.3-3.3,3.3C151,163.4,149.5,161.9,149.5,160.1L149.5,160.1z M42.8,124.4c0-4.5,3.7-8.2,8.2-8.2  c4.5,0,8.2,3.7,8.2,8.2c0,4.5-3.7,8.2-8.2,8.2C46.4,132.7,42.8,129,42.8,124.4L42.8,124.4z M73.8,128.7c0-4.5,3.7-8.2,8.2-8.2  c4.5,0,8.2,3.7,8.2,8.2c0,4.5-3.7,8.2-8.2,8.2C77.5,136.8,73.8,133.2,73.8,128.7L73.8,128.7z M58.2,137.4c0-4.2,3.4-7.7,7.7-7.7  c4.2,0,7.7,3.4,7.7,7.7c0,4.2-3.4,7.7-7.7,7.7C61.7,145.1,58.2,141.7,58.2,137.4L58.2,137.4z M39.3,143.7c0-4.2,3.4-7.6,7.6-7.6  c4.2,0,7.6,3.4,7.6,7.6c0,4.2-3.4,7.6-7.6,7.6C42.7,151.3,39.3,147.9,39.3,143.7L39.3,143.7z M77.4,147.2c0-5.2,4.2-9.3,9.3-9.3  c5.2,0,9.4,4.2,9.4,9.3c0,5.2-4.2,9.4-9.4,9.4C81.6,156.5,77.4,152.3,77.4,147.2L77.4,147.2z M26.4,123.2c0-4.1,3.3-7.5,7.5-7.5  c4.1,0,7.5,3.3,7.5,7.5s-3.3,7.5-7.5,7.5C29.7,130.7,26.4,127.3,26.4,123.2L26.4,123.2z M32.4,138.4c0-1.8,1.5-3.3,3.3-3.3  c1.8,0,3.3,1.5,3.3,3.3c0,1.8-1.5,3.3-3.3,3.3C33.9,141.7,32.4,140.2,32.4,138.4L32.4,138.4z M49.3,94.3c0-4.5,3.6-8.1,8.1-8.1  c4.5,0,8.1,3.6,8.1,8.1c0,4.5-3.6,8.1-8.1,8.1C53,102.4,49.3,98.7,49.3,94.3L49.3,94.3z M28.6,104.6c0-5.7,4.6-10.3,10.3-10.3  c5.7,0,10.3,4.6,10.3,10.3c0,5.7-4.6,10.3-10.3,10.3C33.2,114.9,28.6,110.3,28.6,104.6L28.6,104.6z M75.9,104.8  c0-4.9,3.9-8.8,8.8-8.8c4.9,0,8.8,4,8.8,8.8c0,4.9-3.9,8.8-8.8,8.8C79.8,113.6,75.9,109.7,75.9,104.8L75.9,104.8z M61.1,117.9  c0-4.1,3.3-7.5,7.5-7.5c4.1,0,7.5,3.3,7.5,7.5c0,4.1-3.3,7.5-7.5,7.5C64.5,125.4,61.1,122,61.1,117.9L61.1,117.9z M84.4,91.4  c0-1.9,1.5-3.4,3.4-3.4c1.9,0,3.4,1.5,3.4,3.4c0,1.9-1.5,3.4-3.4,3.4C86,94.8,84.4,93.3,84.4,91.4L84.4,91.4z M67,92.9  c0-1.9,1.5-3.4,3.4-3.4c1.9,0,3.4,1.5,3.4,3.4c0,1.9-1.5,3.4-3.4,3.4C68.5,96.3,67,94.7,67,92.9L67,92.9z M63.6,103.3  c0-2.2,1.8-3.9,3.9-3.9c2.2,0,3.9,1.8,3.9,3.9c0,2.2-1.8,3.9-3.9,3.9C65.4,107.2,63.6,105.4,63.6,103.3L63.6,103.3z M51,106.8  c0-1.8,1.5-3.3,3.3-3.3c1.8,0,3.3,1.5,3.3,3.3c0,1.8-1.5,3.3-3.3,3.3C52.5,110.1,51,108.6,51,106.8L51,106.8z M130.1,68.7  c0-4.7,3.8-8.5,8.5-8.5c4.7,0,8.5,3.8,8.5,8.5c0,4.7-3.8,8.5-8.5,8.5C133.9,77.2,130.1,73.4,130.1,68.7L130.1,68.7z M161,66.8  c0-3.2,2.6-5.8,5.8-5.8c3.2,0,5.8,2.6,5.8,5.8c0,3.2-2.6,5.8-5.8,5.8C163.6,72.6,161,70,161,66.8L161,66.8z M145.8,78.1  c0-4.1,3.3-7.5,7.5-7.5c4.1,0,7.5,3.3,7.5,7.5c0,4.1-3.3,7.5-7.5,7.5C149.2,85.6,145.8,82.3,145.8,78.1L145.8,78.1z M127.4,84.4  c0-3.4,2.8-6.2,6.2-6.2c3.4,0,6.2,2.8,6.2,6.2c0,3.4-2.8,6.2-6.2,6.2C130.2,90.6,127.4,87.8,127.4,84.4L127.4,84.4z M144.4,91.8  c0-2.9,2.3-5.2,5.2-5.2c2.9,0,5.2,2.3,5.2,5.2c0,2.9-2.3,5.2-5.2,5.2C146.8,97,144.4,94.7,144.4,91.8L144.4,91.8z M72.4,52.6  c0-4.4,3.6-8,8-8c4.4,0,8,3.6,8,8c0,4.4-3.6,8-8,8C76,60.7,72.4,57.1,72.4,52.6L72.4,52.6z M52,56.6c0-3.1,2.6-5.7,5.7-5.7  c3.1,0,5.7,2.6,5.7,5.7c0,3.2-2.6,5.7-5.7,5.7C54.5,62.3,52,59.8,52,56.6L52,56.6z M60.2,67.4c0-4.1,3.3-7.5,7.5-7.5  c4.1,0,7.5,3.3,7.5,7.5c0,4.1-3.3,7.5-7.5,7.5C63.5,74.9,60.2,71.5,60.2,67.4L60.2,67.4z M41.9,73.6c0-4.9,4-8.9,8.9-8.9  c4.9,0,8.9,4,8.9,8.9c0,4.9-4,8.9-8.9,8.9C45.9,82.6,41.9,78.6,41.9,73.6L41.9,73.6z M70,81.2c0-4.4,3.6-8,8-8c4.4,0,8,3.6,8,8  c0,4.4-3.6,8-8,8C73.5,89.2,70,85.6,70,81.2L70,81.2z M30.9,85.3c0-3.9,3.1-7,7-7c3.9,0,7,3.1,7,7c0,3.9-3.1,7-7,7  C34,92.2,30.9,89.1,30.9,85.3L30.9,85.3z M83.1,70.7c0-1.9,1.5-3.5,3.5-3.5c1.9,0,3.5,1.5,3.5,3.5s-1.5,3.5-3.5,3.5  C84.6,74.2,83.1,72.6,83.1,70.7L83.1,70.7z M68.9,42.7c0-1.8,1.5-3.3,3.3-3.3c1.8,0,3.3,1.5,3.3,3.3c0,1.8-1.5,3.3-3.3,3.3  C70.4,46,68.9,44.5,68.9,42.7L68.9,42.7z M61.9,80.1c0-1.8,1.5-3.3,3.3-3.3c1.8,0,3.3,1.5,3.3,3.3c0,1.8-1.5,3.3-3.3,3.3  C63.4,83.5,61.9,82,61.9,80.1L61.9,80.1z M141.2,38.1c0-2,1.7-3.7,3.7-3.7c2,0,3.7,1.7,3.7,3.7c0,2-1.7,3.7-3.7,3.7  C142.9,41.8,141.2,40.2,141.2,38.1L141.2,38.1z M148.8,42.9c0-2.3,1.9-4.2,4.2-4.2c2.3,0,4.2,1.9,4.2,4.2c0,2.3-1.9,4.2-4.2,4.2  C150.6,47,148.8,45.2,148.8,42.9L148.8,42.9z M126.7,49.9c0-4.8,3.9-8.7,8.7-8.7c4.8,0,8.7,3.9,8.7,8.7c0,4.8-3.9,8.7-8.7,8.7  C130.6,58.6,126.7,54.7,126.7,49.9L126.7,49.9z M164,49.9c0-2.1,1.7-3.8,3.8-3.8c2.1,0,3.8,1.7,3.8,3.8c0,2.1-1.7,3.8-3.8,3.8  C165.7,53.7,164,52,164,49.9L164,49.9z M147.4,56.9c0-4.3,3.5-7.9,7.9-7.9c4.3,0,7.9,3.5,7.9,7.9c0,4.3-3.5,7.9-7.9,7.9  C150.9,64.8,147.4,61.2,147.4,56.9L147.4,56.9z M114,39.1c0-4.1,3.3-7.5,7.5-7.5c4.1,0,7.5,3.3,7.5,7.5c0,4.1-3.3,7.5-7.5,7.5  C117.3,46.5,114,43.2,114,39.1L114,39.1z M99.1,47.2c0-4.2,3.4-7.6,7.6-7.6c4.2,0,7.6,3.4,7.6,7.6c0,4.2-3.4,7.6-7.6,7.6  C102.5,54.7,99.1,51.3,99.1,47.2L99.1,47.2z M111.6,58.2c0-4.2,3.4-7.6,7.6-7.6c4.2,0,7.6,3.4,7.6,7.6c0,4.2-3.4,7.6-7.6,7.6  C115,65.8,111.6,62.4,111.6,58.2L111.6,58.2z M90.8,66.6c0-4.1,3.3-7.5,7.5-7.5c4.1,0,7.5,3.3,7.5,7.5s-3.3,7.5-7.5,7.5  C94.1,74,90.8,70.7,90.8,66.6L90.8,66.6z M106.7,79.4c0-4.5,3.7-8.2,8.2-8.2c4.5,0,8.2,3.7,8.2,8.2c0,4.5-3.7,8.2-8.2,8.2  C110.4,87.6,106.7,83.9,106.7,79.4L106.7,79.4z M91.3,85.4c0-4.1,3.3-7.5,7.5-7.5c4.1,0,7.5,3.3,7.5,7.5c0,4.1-3.3,7.5-7.5,7.5  C94.7,92.9,91.3,89.6,91.3,85.4L91.3,85.4z M104.1,34.8c0-1.8,1.5-3.3,3.3-3.3c1.8,0,3.3,1.5,3.3,3.3c0,1.8-1.5,3.3-3.3,3.3  C105.6,38.1,104.1,36.6,104.1,34.8L104.1,34.8z M87.9,45.5c0-2.3,1.9-4.2,4.2-4.2c2.3,0,4.2,1.9,4.2,4.2c0,2.3-1.9,4.2-4.2,4.2  C89.8,49.8,87.9,47.9,87.9,45.5L87.9,45.5z M87.9,45.5"></path>	<rect x="227.6" y="31.5" class="st0" width="1.7" height="172.6"></rect>	<g>		<path class="st0" d="M274.6,85.9c0-10.9,7.3-19.3,19.1-19.3c10.1,0,13.6,5.5,13.9,6.8V77h-5.1c-0.2-0.5-2.2-4.8-8.7-4.8   c-8,0-12.5,6.1-12.5,13.7c0,7.7,4.5,13.9,12.6,13.9c3.6,0,6-0.8,7.6-1.6v-8h-9.3v-5.4h15.8v16c-0.5,0.7-5.2,4.6-14.1,4.6   C281.9,105.4,274.6,96.9,274.6,85.9z"></path>		<path class="st0" d="M321.5,67.2H344v5.6h-15.8v10h14.2v5.4h-14.2v11H344v5.6h-22.5V67.2z"></path>		<path class="st0" d="M364.1,72.8h-11.5v-5.6h29.7v5.6h-11.5v32h-6.7V72.8z"></path>		<path class="st0" d="M390.3,98.6V95h5.1c1.1,2.9,3.7,4.9,7.9,4.9c3.9,0,6.6-2,6.6-5.3c0-2.9-1.9-4.5-6.1-5.6l-3-0.8   c-6.8-1.7-10.2-5.2-10.2-10.9c0-6.7,5.2-10.8,12.8-10.8c6.4,0,10.4,2.5,11.6,6.5v3.6h-5.1c-0.8-2.7-2.7-4.6-6.8-4.6   c-4,0-6,2.2-6,4.9c0,2.6,1.8,4.1,5.7,5.2l3.6,1c6.5,1.8,10.1,5.4,10.1,11.4c0,6.7-5.5,10.9-13.2,10.9   C396.3,105.4,391.8,102.3,390.3,98.6z"></path>		<path class="st0" d="M434.2,76.1v28.7H428V67.2h8.3l10.5,20.3L457,67.2h8.3v37.6h-6.7V76.1l-9.9,19.6h-4.5L434.2,76.1z"></path>		<path class="st0" d="M475.5,104.8v-3.5l13.5-34.1h6l13.5,33.6v4h-5.4l-3.6-9.2h-15.4l-3.6,9.2H475.5z M491.9,75.3l-5.7,14.9h11.4   L491.9,75.3z"></path>		<path class="st0" d="M518.9,104.8V67.2h11.3c8.2,0,13.3,4.4,13.3,11.2c0,5-2.8,8.7-7.2,10.4l9.6,12.1v3.8h-5.2l-11-14.4h-4.2v14.4   H518.9z M530.2,84.9c4.1,0,6.7-2.6,6.7-6.4c0-3.1-2.4-5.7-6.7-5.7h-4.7v12H530.2z"></path>		<path class="st0" d="M564,72.8h-11.5v-5.6h29.7v5.6h-11.5v32H564V72.8z"></path>		<path class="st0" d="M274.4,164.9v-2.1l13.8-35.5h2.6l13.7,35.3v2.3h-2.1l-4.6-11.8H281l-4.6,11.8H274.4z M289.4,131l-7.5,19.6   h14.9L289.4,131z"></path>		<path class="st0" d="M322.8,164.9h-2.9v-37.6h2.9v17.9l19.3-17.9h1.8v1.8l-18.2,16.8l18.8,17v2h-2l-19.8-18V164.9z"></path>		<path class="st0" d="M355.3,164.9v-2.1l13.8-35.5h2.6l13.7,35.3v2.3h-2.1l-4.6-11.8h-16.8l-4.6,11.8H355.3z M370.2,131l-7.5,19.6   h14.9L370.2,131z"></path>		<path class="st0" d="M400.7,127.3h10.6c11.7,0,19,8.4,19,18.6c0,10.4-7.3,18.9-19,18.9h-10.6V127.3z M411.2,162.5   c9.4,0,16.2-6.8,16.2-16.5c0-9.5-6.8-16.2-16.2-16.2h-7.6v32.7H411.2z"></path>		<path class="st0" d="M447.2,127.3h20.5v2.5h-17.6v14.4h15.8v2.5h-15.8v15.8h17.6v2.5h-20.5V127.3z"></path>		<path class="st0" d="M487.5,131.8v33.1h-2.7v-37.6h3.3l14.1,24.6l13.9-24.6h3.3v37.6h-3v-33.3l-13.5,23.9h-2L487.5,131.8z"></path>		<path class="st0" d="M538.9,127.3h2.9v37.6h-2.9V127.3z"></path>		<path class="st0" d="M561.3,127.3h20.5v2.5h-17.6v14.4H580v2.5h-15.8v15.8h17.6v2.5h-20.5V127.3z"></path>	</g></g></svg>